<svg xmlns="http://www.w3.org/2000/svg" viewBox="0 0 322 325" width="700" height="707">
	<defs>
		<linearGradient id="grd1" gradientUnits="userSpaceOnUse"  x1="65.723" y1="11" x2="256.277" y2="293.508">
			<stop offset="0.56" stop-color="#aef4d3"  />
			<stop offset="1" stop-color="#ffffff"  />
		</linearGradient>
		<linearGradient id="grd2" gradientUnits="userSpaceOnUse"  x1="111.565" y1="81.024" x2="269.233" y2="314.776">
			<stop offset="0.439" stop-color="#c380e8"  />
			<stop offset="1" stop-color="#c5b3da"  />
		</linearGradient>
		<linearGradient id="grd3" gradientUnits="userSpaceOnUse"  x1="0" y1="0" x2="0" y2="0">
			<stop offset="0.439" stop-color="#c380e8"  />
			<stop offset="1" stop-color="#c5b3da"  />
		</linearGradient>
	</defs>
	<style>
		tspan { white-space:pre }
		.shp0 { fill: url(#grd1) } 
		.shp1 { fill: #ffffff } 
		.shp2 { fill: url(#grd2) } 
		.shp3 { fill: #ff0000 } 
		.shp4 { fill: #322323 } 
		.shp5 { fill: #793c6a } 
		.shp6 { fill: url(#grd3) } 
	</style>
	<path id="Layer 1" class="shp0" d="M166 288.11C84 314.11 12 242.4 12 160C12 77.6 78.6 11 161 11C243.4 11 310 77.6 310 160C310 242.4 240 280.11 240 280.11C240 280.11 207.03 275.1 166 288.11Z" />
	<path id="head copy" class="shp1" d="M99.5 293.05C124.5 219.55 197.85 254.29 222 211.55C235.42 187.81 224.02 183.43 212.5 183.05C180.51 182 193.61 198.42 152.33 202.7C111.05 206.98 84.72 194.02 77.5 184.05C70.28 174.09 78.36 153.77 99 139.05C119.64 124.34 114.24 111.86 122.5 105.05C130.76 98.25 170.53 59.34 218 81.55C265.47 103.77 294.82 133.84 300.5 165.55C306.18 197.27 310.7 212.26 282 247.11C268 264.11 260 290.55 171 291.11C101.86 291.54 81.78 345.14 99.5 293.05Z" />
	<path id="head" class="shp2" d="M104 294.55C134 235.55 201.6 252.56 225 212.05C238 189.55 223.16 181.41 212 181.05C181 180.05 195 198.95 155 203C115 207.05 88 193.45 81 184C74 174.55 87 149.95 107 136C127 122.05 117 112.45 125 106C133 99.55 171 66.95 217 88C263 109.05 292.5 138.95 298 169C303.5 199.05 303.56 206.53 293.5 227.55C283 249.5 255 302.11 179 294.11C112.37 287.1 79.05 343.63 104 294.55Z" />
	<path id="Shape 2" class="shp3" d="" />
	<path id="right_glass" class="shp4" d="M151.5 112.05C148.17 135.38 159.96 150 184.5 150C222.5 150 219.5 124 221 119.05C222.5 114.11 152 108.55 151.5 112.05Z" />
	<path id="Layer 3" class="shp3" d="" />
	<path id="middle_glass" class="shp4" d="M103 110C112 106.55 221.88 110.82 226 119.05C227 121.05 224.92 124.78 223 124C217 121.55 112.91 110.6 103 115C99.5 116.55 104 112 104 112" />
	<path id="left_glass" class="shp4" d="M102.5 112.55C99.17 135.88 98.69 147.05 118.5 147.05C132 147.05 134 119.5 135.5 114.55C137 109.61 103 109.05 102.5 112.55Z" />
	<g id="bling">
		<path id="Layer 6" class="shp1" d="M190 108L198.67 108L198.67 116.67L190 116.67L190 108Z" />
		<path id="Layer 6 copy" class="shp1" d="M207.33 108L216 108L216 116.67L207.33 116.67L207.33 108Z" />
		<path id="Layer 6 copy 3" class="shp1" d="M190 125.33L198.67 125.33L198.67 134L190 134L190 125.33Z" />
		<path id="Layer 6 copy 4" class="shp1" d="M207.33 125.33L216 125.33L216 134L207.33 134L207.33 125.33Z" />
		<path id="Layer 6 copy 2" class="shp1" d="M198.67 116.67L207.33 116.67L207.33 125.33L198.67 125.33L198.67 116.67Z" />
	</g>
	<path id="smile copy" class="shp5" d="M116.15 196.72C88.06 185.52 97.57 190.52 89.37 177.6C81.18 164.68 95.52 174.13 112.32 171.96C151.67 166.88 172.73 145.3 190.46 160.11C210.13 176.53 178.99 192.77 165.87 195.66C152.76 198.54 127.62 201.3 116.15 196.72Z" />
	<path id="smile" class="shp1" d="M118 196C92.29 186.07 101 190.5 93.5 179.05C86 167.61 99.12 175.98 114.5 174.05C150.5 169.55 169.77 150.43 186 163.55C204 178.11 175.5 192.5 163.5 195.05C151.5 197.61 128.5 200.05 118 196Z" />
	<path id="Layer 5" class="shp5" d="M98 180.78C98 180.78 112.25 183.25 114.5 181.53C116.75 179.8 115.5 180.53 115.5 180.53C115.5 180.53 117.7 182.09 119.5 182.28C127 183.05 131.03 183.52 131.25 182.78C132 180.28 132 176 132 176C132 176 135.23 182.78 137.25 182.78C143 182.78 156.75 183.25 157.75 177.53C158.75 171.8 156 170 156 170C156 170 160.25 176.5 162 177.53C163.75 178.55 176 176.22 178 174C180 171.78 175.75 178.25 169 179.78C162.25 181.3 166.75 179.97 166 183C165.25 186.03 164.25 182.75 163 181.03C161.75 179.3 157.5 182.5 145.25 184.03C133 185.55 98 180.78 98 180.78Z" />
	<path id="Shape 3" class="shp6" d="" />
</svg>